<?xml version="1.0" encoding="UTF-8"?>
<svg version="1.1" xmlns="http://www.w3.org/2000/svg" width="1000" height="158">
<path d="M0 0 C0 3.3 0 6.6 0 10 C-1.10408203 10.25523438 -1.10408203 10.25523438 -2.23046875 10.515625 C-9.87109103 12.31672136 -9.87109103 12.31672136 -16 17 C-18.1074382 21.12583422 -18.27482551 24.91228752 -18.22705078 29.45239258 C-18.22748886 30.55076447 -18.22748886 30.55076447 -18.22793579 31.67132568 C-18.2265482 34.07918359 -18.21101418 36.48672775 -18.1953125 38.89453125 C-18.19158033 40.56890189 -18.18873432 42.24327471 -18.18673706 43.91764832 C-18.17911663 48.31531856 -18.15948184 52.71285579 -18.1373291 57.11047363 C-18.11683638 61.60162558 -18.10772802 66.09279911 -18.09765625 70.58398438 C-18.0762344 79.38938382 -18.04211772 88.19467534 -18 97 C-14.7 97.33 -11.4 97.66 -8 98 C-8.02094727 96.54295654 -8.04189453 95.08591309 -8.06347656 93.5847168 C-8.13631847 88.1372271 -8.18195993 82.68977977 -8.21972656 77.24194336 C-8.23974175 74.89193462 -8.26696244 72.54197504 -8.30175781 70.19213867 C-8.35072124 66.79854133 -8.37307059 63.40560704 -8.390625 60.01171875 C-8.41127014 58.97480392 -8.43191528 57.9378891 -8.45318604 56.86955261 C-8.45655887 45.70348552 -5.25107474 37.32092424 2.49609375 29.29296875 C8.21456036 24.05624504 15.84315825 17.46619571 23.80859375 16.74609375 C32.82867222 17.46372545 42.09994221 25.47029178 48 32 C52.14192209 37.87209207 55.13084474 42.91436382 55.11352539 50.20581055 C55.11341209 51.79712044 55.11341209 51.79712044 55.11329651 53.420578 C55.10813522 54.56440445 55.10297394 55.7082309 55.09765625 56.88671875 C55.0962413 58.05886429 55.09482635 59.23100983 55.09336853 60.43867493 C55.08776388 64.18830907 55.07521056 67.93788385 55.0625 71.6875 C55.0574856 74.22721268 55.05292259 76.7669263 55.04882812 79.30664062 C55.03779294 85.53778073 55.02105025 91.76888612 55 98 C56.64630328 97.85957123 58.29204179 97.71250671 59.9375 97.5625 C61.31228516 97.44068359 61.31228516 97.44068359 62.71484375 97.31640625 C64.96159732 97.23955024 64.96159732 97.23955024 66 96 C66.11549686 93.77296421 66.15972338 91.5422176 66.17700195 89.31225586 C66.18357315 88.61294952 66.19014435 87.91364319 66.19691467 87.19314575 C66.21670357 84.86704408 66.22832695 82.54100735 66.23828125 80.21484375 C66.24235678 79.42036898 66.2464323 78.6258942 66.25063133 77.80734444 C66.27152297 73.59658185 66.2858072 69.38585209 66.29516602 65.17504883 C66.30619417 60.83623015 66.3405429 56.49792951 66.38033772 52.15929317 C66.40656976 48.81597482 66.41486401 45.47277812 66.41844749 42.12936592 C66.42330209 40.53106783 66.43488386 38.93277477 66.45348549 37.33457756 C66.71182082 25.56390372 66.71182082 25.56390372 62 15 C57.71174195 12.0761877 53.00705653 11.12227129 48 10 C48 6.7 48 3.4 48 0 C57.16253964 0.39268027 65.00404714 2.37072494 71.4375 9.3125 C76.14475319 14.89094632 77.45094148 21.78008627 77.40405273 28.86547852 C77.41091599 29.60642761 77.41777924 30.34737671 77.42485046 31.11077881 C77.44299126 33.53368882 77.43930054 35.95594364 77.43359375 38.37890625 C77.43816067 40.07706408 77.44346775 41.77522007 77.44947815 43.47337341 C77.45838346 47.02130677 77.45601449 50.5690147 77.44604492 54.11694336 C77.43454006 58.65189445 77.4548027 63.18606861 77.48396206 67.7209177 C77.50234826 71.22377925 77.50202712 74.72645524 77.49632454 78.22935295 C77.49617172 79.90102163 77.50218348 81.57270319 77.51461601 83.24432564 C77.52957629 85.58467942 77.51881493 87.92360543 77.50170898 90.26391602 C77.51137695 90.94618759 77.52104492 91.62845917 77.53100586 92.33140564 C77.44962293 97.67700971 75.92603987 100.67944916 73 105 C67.66998115 109.13076461 61.42217159 108.28058031 55 108 C55.96595849 112.15362151 56.51762254 113.67198332 60.125 116.125 C61.07375 117.07375 62.0225 118.0225 63 119 C63 122.96 63 126.92 63 131 C37.26 131 11.52 131 -15 131 C-15 119 -15 119 -12.625 115.75 C-10 114 -10 114 -8 114 C-8 112.02 -8 110.04 -8 108 C-8.72445313 108.03480469 -9.44890625 108.06960937 -10.1953125 108.10546875 C-20.21294945 108.38596258 -20.21294945 108.38596258 -25 105 C-29.98232734 99.88301516 -30.122699 95.25566363 -30.14526367 88.34887695 C-30.14862228 87.70096695 -30.1519809 87.05305695 -30.15544128 86.38551331 C-30.16490389 84.25308285 -30.16689235 82.12073138 -30.16796875 79.98828125 C-30.17118575 78.49480661 -30.17455015 77.00133227 -30.17805481 75.50785828 C-30.1840352 72.37835969 -30.18589595 69.24888866 -30.18530273 66.11938477 C-30.18520144 62.13303261 -30.19882434 58.14685989 -30.21607494 54.16055012 C-30.22726382 51.07451079 -30.2292198 47.98851381 -30.22869301 44.90245628 C-30.2298639 43.43423027 -30.23423491 41.96600283 -30.24202538 40.49779701 C-30.30220359 27.97995309 -30.21841147 16.93845252 -21.43359375 7.27734375 C-15.31315046 1.49771401 -8.29278871 -0.52932694 0 0 Z " fill="#1D6085" transform="translate(33,27)"/>
<path d="M0 0 C8.83130222 4.71421827 16.61537732 11.35692243 20 21 C20.53068881 25.0620057 20.48740288 29.07273154 20.43359375 33.1640625 C20.44319462 35.52604234 20.45296534 37.8880215 20.46289062 40.25 C20.45427652 43.94766754 20.43737951 47.64516245 20.4152832 51.34277344 C20.40077119 54.92938185 20.41600434 58.51498978 20.43359375 62.1015625 C20.41711288 63.20480865 20.40063202 64.30805481 20.38365173 65.44473267 C20.36714171 72.07625347 20.36714171 72.07625347 23.53540039 77.68115234 C24.34871826 78.44637207 25.16203613 79.2115918 26 80 C26 80.33 26 80.66 26 81 C6.2 81 -13.6 81 -34 81 C-32 77 -32 77 -30.39607239 75.57118225 C-28.41620965 73.34298462 -28.64049513 71.80844676 -28.6628418 68.86108398 C-28.66241379 67.81246689 -28.66198578 66.76384979 -28.6615448 65.68345642 C-28.6739772 64.54912674 -28.68640961 63.41479706 -28.69921875 62.24609375 C-28.69157187 59.84049206 -28.68308115 57.43489293 -28.67382812 55.02929688 C-28.67603242 51.23962382 -28.6874053 47.45046437 -28.71508789 43.66088867 C-28.73590975 40.00126713 -28.71970729 36.34318578 -28.69921875 32.68359375 C-28.71772385 31.56343369 -28.73622894 30.44327362 -28.7552948 29.28916931 C-28.67355132 20.43476384 -26.13724137 14.28339451 -19.95951843 7.88743591 C-18.05257102 6.11577542 -16.09630514 4.54164074 -14 3 C-13.39929688 2.55398437 -12.79859375 2.10796875 -12.1796875 1.6484375 C-7.7898582 -1.24530647 -4.96828667 -1.54188207 0 0 Z " fill="#FDC10E" transform="translate(61,53)"/>
<path d="M0 0 C2.97 0 5.94 0 9 0 C9.05831395 4.04160556 9.09370212 8.08310205 9.125 12.125 C9.14175781 13.26710938 9.15851563 14.40921875 9.17578125 15.5859375 C9.18222656 16.69453125 9.18867188 17.803125 9.1953125 18.9453125 C9.20578613 19.96125488 9.21625977 20.97719727 9.22705078 22.02392578 C8.88861731 26.45995161 7.93340286 29.88593852 5.0625 33.3125 C0.39402816 37.13215878 -5.57996966 36.30773062 -11.3359375 36.5234375 C-15.11583653 37.01506616 -16.84783721 37.99695341 -20 40 C-22.5 40.3984375 -22.5 40.3984375 -25 40.375 C-25.825 40.38273437 -26.65 40.39046875 -27.5 40.3984375 C-30 40 -30 40 -32.17921448 38.50013733 C-35.71074181 36.62201652 -38.73267433 36.57393552 -42.63256836 36.59936523 C-43.38443924 36.59238617 -44.13631012 36.5854071 -44.91096497 36.57821655 C-47.38737286 36.55828091 -49.86336284 36.55874013 -52.33984375 36.55859375 C-54.06711444 36.5468168 -55.79437497 36.53345179 -57.5216217 36.51856995 C-62.06488263 36.48240624 -66.60805352 36.46219102 -71.15142822 36.44702148 C-78.419491 36.42218266 -85.68735468 36.38242084 -92.95523262 36.32512093 C-95.4889152 36.30884067 -98.02240874 36.30501854 -100.55613708 36.30210876 C-102.1167737 36.29232798 -103.67740738 36.28206397 -105.23803711 36.27124023 C-105.93796783 36.27379318 -106.63789856 36.27634613 -107.35903931 36.27897644 C-111.60196054 36.23490292 -115.05137641 35.54348861 -119 34 C-119.36351562 34.47050781 -119.72703125 34.94101562 -120.1015625 35.42578125 C-124.44179183 40.80098834 -127.96629901 43.36390141 -134.875 44.8125 C-141.70149736 45.42363405 -147.14349558 43.52909795 -152.52734375 39.359375 C-155.71136729 36.42027635 -157.18034161 33.17213507 -158 29 C-158.06688591 27.08438746 -158.08531719 25.16664408 -158.0625 23.25 C-158.05347656 22.26515625 -158.04445313 21.2803125 -158.03515625 20.265625 C-158.02355469 19.51796875 -158.01195312 18.7703125 -158 18 C-155.03 18 -152.06 18 -149 18 C-148.95101562 18.74765625 -148.90203125 19.4953125 -148.8515625 20.265625 C-148.77679688 21.25046875 -148.70203125 22.2353125 -148.625 23.25 C-148.55539063 24.22453125 -148.48578125 25.1990625 -148.4140625 26.203125 C-147.90327668 29.65333866 -147.18351769 32.08960178 -144.375 34.25 C-139.70581384 35.72447984 -135.58791486 35.57435218 -131.0625 33.9375 C-128.16855715 31.21894763 -128.21859217 28.86179505 -128 25 C-129.65 24.67 -131.3 24.34 -133 24 C-133 21.36 -133 18.72 -133 16 C-123.07042941 16.62735849 -123.07042941 16.62735849 -119 20 C-118.46375 21.051875 -117.9275 22.10375 -117.375 23.1875 C-115.31450864 26.25959638 -115.31450864 26.25959638 -112.3046875 26.38671875 C-109.53347901 26.37608752 -106.76418636 26.19744188 -104 26 C-103.67 20.72 -103.34 15.44 -103 10 C-100.03 10 -97.06 10 -94 10 C-94 15.61 -94 21.22 -94 27 C-89.71 27 -85.42 27 -81 27 C-81.495 24.03 -81.495 24.03 -82 21 C-80.78301606 17.55187882 -79.61628712 15.54378275 -76.875 13.125 C-71.46990875 11.00996429 -66.86417415 11.18654219 -61.5625 13.5 C-58.05066579 16.92617972 -57.69003349 19.16976558 -57 24 C-57.495 25.485 -57.495 25.485 -58 27 C-57.01 27 -56.02 27 -55 27 C-55.65240473 21.98524721 -56.17493332 18.07035678 -59.3125 14 C-61.84784046 12.113235 -63.99642267 10.94398145 -67 10 C-67 7.69 -67 5.38 -67 3 C-64.19063912 2.20368468 -62.51672756 1.8221537 -59.71875 2.78515625 C-53.67361039 6.26536867 -49.65530647 9.37409058 -46.6875 15.875 C-45.84288004 19.71418163 -45.86462583 23.07414909 -46 27 C-43.36 27 -40.72 27 -38 27 C-37.9175 26.113125 -37.835 25.22625 -37.75 24.3125 C-36.89879084 20.55299285 -35.62034678 18.77915568 -33 16 C-28.82437724 13.91218862 -23.54816058 14.55672133 -19 15 C-15.40402785 17.01374441 -13.34646488 19.08301125 -12 23 C-12 24.32 -12 25.64 -12 27 C-10.35333797 26.8864371 -8.70763918 26.75882619 -7.0625 26.625 C-5.68771484 26.52058594 -5.68771484 26.52058594 -4.28515625 26.4140625 C-3.53105469 26.27742188 -2.77695312 26.14078125 -2 26 C-0.71394339 23.42788678 -0.78956059 21.43093034 -0.68359375 18.5546875 C-0.64169922 17.47832031 -0.59980469 16.40195312 -0.55664062 15.29296875 C-0.51732422 14.16503906 -0.47800781 13.03710938 -0.4375 11.875 C-0.37272461 10.17150391 -0.37272461 10.17150391 -0.30664062 8.43359375 C-0.2003396 5.62252232 -0.09830595 2.81136055 0 0 Z M-71 19 C-71.66 19.66 -72.32 20.32 -73 21 C-72.67801034 24.09926819 -72.67801034 24.09926819 -72 27 C-70.35 26.67 -68.7 26.34 -67 26 C-66.32041397 23.60280568 -66.32041397 23.60280568 -66 21 C-66.66 20.34 -67.32 19.68 -68 19 C-68.99 19 -69.98 19 -71 19 Z M-29 24 C-29.41666667 27.5 -29.41666667 27.5 -29 31 C-26.29667695 33.28600028 -26.29667695 33.28600028 -23.875 32.6875 C-22.01406147 32.15421514 -22.01406147 32.15421514 -21 31 C-20.69476038 26.34911285 -20.69476038 26.34911285 -22 22 C-25.95457848 21.65176193 -25.95457848 21.65176193 -29 24 Z " fill="#07537C" transform="translate(282,21)"/>
<path d="M0 0 C287.1 0 574.2 0 870 0 C870.33 0.99 870.66 1.98 871 3 C583.24 3 295.48 3 -1 3 C-0.67 2.01 -0.34 1.02 0 0 Z " fill="#1C5F85" transform="translate(124,84)"/>
<path d="M0 0 C2.97 0 5.94 0 9 0 C9 8.91 9 17.82 9 27 C15.435 26.505 15.435 26.505 22 26 C23.4807848 23.0384304 23.35314037 20.16493705 23.5625 16.875 C23.64628906 15.59367187 23.73007812 14.31234375 23.81640625 12.9921875 C23.90728516 11.51105469 23.90728516 11.51105469 24 10 C26.97 10 29.94 10 33 10 C33.02699725 12.27076842 33.04639453 14.54162821 33.0625 16.8125 C33.07410156 18.07707031 33.08570313 19.34164062 33.09765625 20.64453125 C33 24 33 24 32 27 C35.96 26.67 39.92 26.34 44 26 C44.04125 24.618125 44.0825 23.23625 44.125 21.8125 C44.5695143 18.05487245 44.96843895 17.03965363 47.4375 13.9375 C50.95027011 11.50818669 54.40310758 11.29792525 58.58984375 11.5 C62.5271311 12.31681164 64.28634241 14.07759951 67 17 C68.60725635 20.21451269 68.05748185 23.43612536 68 27 C68.99 27 69.98 27 71 27 C70.71517632 25.58194169 70.42181856 24.16559621 70.125 22.75 C69.96257812 21.96109375 69.80015625 21.1721875 69.6328125 20.359375 C68.98701893 17.95160144 68.36776787 16.0876457 67 14 C65.06896092 12.88526866 65.06896092 12.88526866 62.875 12.25 C61.59625 11.8375 60.3175 11.425 59 11 C59 8.03 59 5.06 59 2 C65.06704746 2.37919047 69.2559825 4.16551091 74 8 C78.92856348 13.96615579 80.21021153 20.14132087 80.265625 27.69140625 C79.9278594 30.6269867 78.95981799 33.21276291 78 36 C76.66362236 36.00213753 76.66362236 36.00213753 75.30024719 36.00431824 C66.89862452 36.02215764 58.4975281 36.06379884 50.09615803 36.13209057 C45.77700691 36.16636217 41.45820954 36.19147075 37.13891602 36.19555664 C32.96942521 36.19983933 28.80073243 36.22829851 24.63149071 36.27343178 C23.04196002 36.28640792 21.45233384 36.29071401 19.86275673 36.28615379 C17.63329852 36.28124808 15.40617309 36.30733237 13.17700195 36.34057617 C11.90903275 36.34723801 10.64106354 36.35389984 9.33467102 36.36076355 C5.12919671 37.16692777 3.75985493 38.81506297 1 42 C-3.02549707 44.68366472 -6.41067895 45.41879453 -11.24609375 44.63671875 C-18.29090757 42.70028595 -21.72957663 38.81843931 -25.375 32.6875 C-26.35304887 28.48188984 -26.15018206 24.29687563 -26 20 C-23.03 20 -20.06 20 -17 20 C-16.96132813 20.99580078 -16.96132813 20.99580078 -16.921875 22.01171875 C-16.65198844 26.21336175 -16.33664544 29.35260492 -14.375 33.125 C-12.03420855 35.2860727 -12.03420855 35.2860727 -8.5 35.5625 C-4.39517152 34.90279542 -3.4666035 34.27159272 -1 31 C-0.35789448 27.62078606 -0.35789448 27.62078606 -0.390625 23.828125 C-0.37408875 23.1457074 -0.35755249 22.46328979 -0.34051514 21.76019287 C-0.29210161 19.59003646 -0.27068135 17.42058028 -0.25 15.25 C-0.22183438 13.77470448 -0.19190611 12.29944149 -0.16015625 10.82421875 C-0.08634775 7.21629802 -0.03673106 3.60851028 0 0 Z M54 19 C52.64381501 20.12534105 52.64381501 20.12534105 52.9375 23.0625 C52.958125 24.031875 52.97875 25.00125 53 26 C55.475 26.495 55.475 26.495 58 27 C59.19838209 24.67145537 59.19838209 24.67145537 60 22 C59.34 21.01 58.68 20.02 58 19 C56.68 19 55.36 19 54 19 Z " fill="#014F79" transform="translate(567,21)"/>
<path d="M0 0 C2.97 0 5.94 0 9 0 C9 8.58 9 17.16 9 26 C13.29 26 17.58 26 22 26 C23.4807848 23.0384304 23.35314037 20.16493705 23.5625 16.875 C23.64628906 15.59367187 23.73007812 14.31234375 23.81640625 12.9921875 C23.90728516 11.51105469 23.90728516 11.51105469 24 10 C26.97 10 29.94 10 33 10 C33.02691685 12.45840605 33.04679802 14.91651882 33.0625 17.375 C33.07087891 18.07367188 33.07925781 18.77234375 33.08789062 19.4921875 C33.11328125 24.7734375 33.11328125 24.7734375 32 27 C36.62 27 41.24 27 46 27 C46.33 18.09 46.66 9.18 47 0 C49.97 0 52.94 0 56 0 C56.02892385 4.12498538 56.04677267 8.24994485 56.0625 12.375 C56.07087891 13.550625 56.07925781 14.72625 56.08789062 15.9375 C56.09111328 17.05898438 56.09433594 18.18046875 56.09765625 19.3359375 C56.10289307 20.37282715 56.10812988 21.4097168 56.11352539 22.47802734 C56 25 56 25 55 27 C61.435 26.505 61.435 26.505 68 26 C68.33 17.42 68.66 8.84 69 0 C71.97 0 74.94 0 78 0 C78.12426099 4.01993847 78.21464411 8.03912279 78.2746582 12.06054688 C78.2996928 13.42630503 78.33373218 14.79193067 78.37719727 16.15722656 C78.77465997 28.96955389 78.77465997 28.96955389 75.66796875 32.8671875 C71.75221715 35.99749551 68.93169463 36.13025794 64.06323242 36.16113281 C62.84153854 36.17074036 61.61984467 36.1803479 60.36112976 36.19024658 C59.02591133 36.1950951 57.69069072 36.19937379 56.35546875 36.203125 C54.9840749 36.20887978 53.61268106 36.21463747 52.24128723 36.22039795 C49.36552558 36.23089922 46.4897918 36.23674737 43.61401367 36.24023438 C39.93875988 36.24571271 36.26387776 36.26972982 32.58874035 36.29820633 C29.75506025 36.31688179 26.92146874 36.32204094 24.08773232 36.32357025 C22.07701448 36.32804916 20.06634415 36.34667271 18.05570984 36.36553955 C16.82455948 36.36253845 15.59340912 36.35953735 14.32495117 36.35644531 C13.24590012 36.36009094 12.16684906 36.36373657 11.05509949 36.36749268 C7.45840318 35.93485225 5.08336844 34.88098005 2 33 C-0.45286296 29.32070555 -0.23228878 27.52622093 -0.1953125 23.14453125 C-0.1924826 22.48289474 -0.18965271 21.82125824 -0.18673706 21.13957214 C-0.17555918 19.03036263 -0.15045981 16.92158075 -0.125 14.8125 C-0.11496707 13.38086552 -0.10584176 11.94922436 -0.09765625 10.51757812 C-0.07562795 7.01158023 -0.04111485 3.50583187 0 0 Z " fill="#09547D" transform="translate(651,21)"/>
<path d="M0 0 C2.97 0 5.94 0 9 0 C9 5.61 9 11.22 9 17 C16.92 17 24.84 17 33 17 C33.33 12.38 33.66 7.76 34 3 C36.97 3 39.94 3 43 3 C43.495 4.98 43.495 4.98 44 7 C44.9075 6.21625 45.815 5.4325 46.75 4.625 C51.52151361 0.50414734 55.27362556 -0.46503436 61.53125 -0.30859375 C65.28297272 0.16037159 67.24824801 1.44480172 70 4 C74.48441453 9.81761884 75.05304114 15.74397256 75 23 C74.505 24.485 74.505 24.485 74 26 C52.22 26 30.44 26 8 26 C7.01 28.475 7.01 28.475 6 31 C1.26819653 34.26719764 -2.46490977 34.28629777 -8 34 C-8 31.69 -8 29.38 -8 27 C-7.030625 26.71125 -6.06125 26.4225 -5.0625 26.125 C-1.89335797 25.35785318 -1.89335797 25.35785318 -1 23 C-0.84733388 21.26131256 -0.75067404 19.51752499 -0.68359375 17.7734375 C-0.64169922 16.7421875 -0.59980469 15.7109375 -0.55664062 14.6484375 C-0.51732422 13.56820312 -0.47800781 12.48796875 -0.4375 11.375 C-0.37272461 9.74304688 -0.37272461 9.74304688 -0.30664062 8.078125 C-0.2003547 5.3855483 -0.09831943 2.69287747 0 0 Z M50 11 C48.35 12.98 46.7 14.96 45 17 C51.6 17 58.2 17 65 17 C64.76666667 10.36666667 64.76666667 10.36666667 62 8 C56.98918281 7.5272814 53.97162463 7.86450687 50 11 Z " fill="#03507A" transform="translate(751,31)"/>
<path d="M0 0 C2.20348536 3.30522804 2.24563385 4.27660999 2.22705078 8.11401367 C2.22689972 9.15486618 2.22674866 10.19571869 2.22659302 11.26811218 C2.21627045 12.39006485 2.20594788 13.51201752 2.1953125 14.66796875 C2.1924826 15.81791824 2.18965271 16.96786774 2.18673706 18.15266418 C2.17552833 21.83104796 2.15042224 25.50918962 2.125 29.1875 C2.11497111 31.67903295 2.1058451 34.1705697 2.09765625 36.66210938 C2.07728704 42.77490826 2.0381389 48.88718261 2 55 C-13.51 55 -29.02 55 -45 55 C-43.07545658 51.15091317 -41.21988495 48.86664543 -38.3125 45.75 C-37.39921125 44.76220697 -36.48645231 43.77392383 -35.57421875 42.78515625 C-34.72472656 41.86605469 -33.87523437 40.94695312 -33 40 C-29.69639186 36.30773208 -26.46797174 32.5514914 -23.25390625 28.78125 C-22.23178434 27.5833218 -21.20964853 26.38540548 -20.1875 25.1875 C-19.67396973 24.58437988 -19.16043945 23.98125977 -18.63134766 23.35986328 C-15.33792889 19.50876306 -11.95579437 15.76841833 -8.5 12.0625 C-4.98336945 8.24056712 -2.27871286 4.66100358 0 0 Z " fill="#F48220" transform="translate(79,71)"/>
<path d="M0 0 C2.97 0 5.94 0 9 0 C9.11647041 4.54144994 9.18734502 9.08251394 9.25 13.625 C9.28351563 14.91019531 9.31703125 16.19539063 9.3515625 17.51953125 C9.46213813 28.1900795 9.46213813 28.1900795 7.296875 31.7734375 C3.14296397 35.80018799 -0.77901779 36.25008762 -6.42675781 36.24291992 C-7.70448059 36.24599655 -8.98220337 36.24907318 -10.29864502 36.25224304 C-11.68347353 36.2453474 -13.06830024 36.23808059 -14.453125 36.23046875 C-15.87847858 36.22927596 -17.30383296 36.228824 -18.72918701 36.2290802 C-21.70818032 36.2275197 -24.68705271 36.21926009 -27.66601562 36.20581055 C-31.49178923 36.18875946 -35.3174309 36.18499819 -39.14323807 36.18575573 C-42.08222725 36.18548449 -45.02118738 36.18001172 -47.96016693 36.17275429 C-49.37162811 36.16956508 -50.7830926 36.16759963 -52.19455719 36.16686058 C-54.15999023 36.1647032 -56.12541108 36.15517505 -58.09082031 36.14526367 C-59.2104718 36.14145187 -60.33012329 36.13764008 -61.48370361 36.13371277 C-64 36 -64 36 -65 35 C-65 32.36 -65 29.72 -65 27 C-58.4 27 -51.8 27 -45 27 C-45.66 24.69 -46.32 22.38 -47 20 C-52.94 19.01 -52.94 19.01 -59 18 C-59 15.36 -59 12.72 -59 10 C-52.24549987 9.58645918 -46.64428667 9.81639065 -41.26953125 14.51171875 C-37.47493633 18.52263263 -36.22428998 21.5048955 -36 27 C-32.04 26.67 -28.08 26.34 -24 26 C-23.90912109 24.39318359 -23.90912109 24.39318359 -23.81640625 22.75390625 C-23.73201463 21.35675609 -23.64736594 19.95962143 -23.5625 18.5625 C-23.52318359 17.85544922 -23.48386719 17.14839844 -23.44335938 16.41992188 C-23.11328125 11.11328125 -23.11328125 11.11328125 -22 10 C-19.36 10 -16.72 10 -14 10 C-14 15.61 -14 21.22 -14 27 C-7.565 26.505 -7.565 26.505 -1 26 C-0.67 17.42 -0.34 8.84 0 0 Z " fill="#0C567F" transform="translate(476,21)"/>
<path d="M0 0 C10.89 0 21.78 0 33 0 C33.1546875 6.9609375 33.1546875 6.9609375 33.3125 14.0625 C33.35802002 15.51277588 33.40354004 16.96305176 33.45043945 18.45727539 C33.56522316 29.12031181 33.56522316 29.12031181 30.796875 33.18359375 C28.27022313 35.72788984 25.88282413 37.96057927 22.9375 40 C22.10089844 40.598125 21.26429687 41.19625 20.40234375 41.8125 C18 43 18 43 16.0078125 42.92578125 C13.31796638 41.68552146 11.2350279 40.05532434 8.9375 38.1875 C8.08027344 37.50042969 7.22304688 36.81335937 6.33984375 36.10546875 C3.1936433 33.27441358 1.34121591 31.02364772 0 27 C-0.08315752 24.93501108 -0.10735878 22.8674211 -0.09765625 20.80078125 C-0.09515869 19.71192627 -0.09266113 18.62307129 -0.09008789 17.5012207 C-0.08098389 16.11894287 -0.07187988 14.73666504 -0.0625 13.3125 C-0.0315625 6.7228125 -0.0315625 6.7228125 0 0 Z " fill="#EF3B39" transform="translate(40,0)"/>
<path d="M0 0 C3.01125 -0.061875 6.0225 -0.12375 9.125 -0.1875 C10.06230957 -0.21481201 10.99961914 -0.24212402 11.96533203 -0.27026367 C17.07191325 -0.32084004 20.58493545 0.13579673 25 3 C27.39834629 6.16145647 27.31634554 9.12476708 27 13 C26.63648438 13.75796875 26.27296875 14.5159375 25.8984375 15.296875 C24.73049855 18.81084783 25.36670256 20.78345895 26.375 24.3125 C26.67148437 25.38113281 26.96796875 26.44976562 27.2734375 27.55078125 C27.51320313 28.35902344 27.75296875 29.16726562 28 30 C28.32798584 29.12674072 28.65597168 28.25348145 28.99389648 27.35375977 C30.20869079 24.12328124 31.42589917 20.89373438 32.64477539 17.66479492 C33.17244465 16.26542318 33.69914064 14.86568405 34.22485352 13.46557617 C34.97939339 11.45655154 35.73739019 9.44886155 36.49609375 7.44140625 C36.95169678 6.23170166 37.4072998 5.02199707 37.87670898 3.77563477 C39 1 39 1 40 0 C42.67058851 -0.14115161 45.32432238 -0.04247107 48 0 C49.5729434 4.07269123 51.13933576 8.14782243 52.69970703 12.2253418 C53.23144063 13.61209913 53.76495802 14.99817385 54.30029297 16.38354492 C55.06948357 18.37502078 55.83222484 20.36886369 56.59375 22.36328125 C57.05458984 23.56251221 57.51542969 24.76174316 57.99023438 25.99731445 C59 29 59 29 59 32 C56.36 32 53.72 32 51 32 C50.01 30.02 49.02 28.04 48 26 C45.03 26 42.06 26 39 26 C38.01 27.98 37.02 29.96 36 32 C33.35409986 32.02684679 30.70846904 32.04676357 28.0625 32.0625 C27.30775391 32.07087891 26.55300781 32.07925781 25.77539062 32.08789062 C23.85005687 32.09652441 21.92464419 32.05224333 20 32 C17.73293933 29.73293933 18.25590776 23.88810189 18 21 C14.7 20.67 11.4 20.34 8 20 C8 23.96 8 27.92 8 32 C5.36 32 2.72 32 0 32 C0 21.44 0 10.88 0 0 Z M8 7 C8 9.31 8 11.62 8 14 C11.3 14 14.6 14 18 14 C19.00217064 10.41672247 19.00217064 10.41672247 18 7 C14.7 7 11.4 7 8 7 Z M43 11 C41.74335022 13.90600261 41 15.79604584 41 19 C42.65 19 44.3 19 46 19 C45.55296014 14.52116304 45.55296014 14.52116304 43 11 Z " fill="#014E79" transform="translate(627,100)"/>
<path d="M0 0 C2.52951504 -0.01423075 4.95551854 0.114909 7.46484375 0.421875 C6.2091747 3.89911236 4.73141219 6.51569958 2.46484375 9.421875 C3.44324219 9.62490234 3.44324219 9.62490234 4.44140625 9.83203125 C10.20950219 11.25278645 13.61886026 12.80983789 17.30859375 17.5078125 C19.99302808 21.9516396 20.70371625 25.55317604 20.58984375 30.734375 C20.57179688 31.80300781 20.55375 32.87164062 20.53515625 33.97265625 C20.51195312 34.78089844 20.48875 35.58914062 20.46484375 36.421875 C19.15813721 36.42074707 17.85143066 36.41961914 16.50512695 36.41845703 C11.64986917 36.42213228 6.79560442 36.46496018 1.94067383 36.51953125 C-0.15919597 36.53768247 -2.25918516 36.54526135 -4.35913086 36.54199219 C-7.38098363 36.53913262 -10.40036475 36.57447299 -13.421875 36.6171875 C-14.35851486 36.60809357 -15.29515472 36.59899963 -16.26017761 36.58963013 C-21.07054659 36.59056595 -21.07054659 36.59056595 -25.16690063 38.77581787 C-26.36504941 40.26693782 -27.45698876 41.84182625 -28.53515625 43.421875 C-31.28594509 44.33880461 -32.89464538 44.53073583 -35.72265625 44.484375 C-36.98078125 44.46375 -38.23890625 44.443125 -39.53515625 44.421875 C-39.53515625 42.111875 -39.53515625 39.801875 -39.53515625 37.421875 C-38.56578125 37.133125 -37.59640625 36.844375 -36.59765625 36.546875 C-33.42851422 35.77972818 -33.42851422 35.77972818 -32.53515625 33.421875 C-32.38249013 31.68318756 -32.28583029 29.93939999 -32.21875 28.1953125 C-32.17685547 27.1640625 -32.13496094 26.1328125 -32.09179688 25.0703125 C-32.05248047 23.99007812 -32.01316406 22.90984375 -31.97265625 21.796875 C-31.90788086 20.16492187 -31.90788086 20.16492187 -31.84179688 18.5 C-31.73551095 15.8074233 -31.63347568 13.11475247 -31.53515625 10.421875 C-28.56515625 10.421875 -25.59515625 10.421875 -22.53515625 10.421875 C-22.53515625 16.031875 -22.53515625 21.641875 -22.53515625 27.421875 C-11.64515625 27.091875 -0.75515625 26.761875 10.46484375 26.421875 C7.82808594 21.38377355 7.82808594 21.38377355 3.46484375 19.421875 C0.55212012 19.05741265 -2.35324139 18.91356813 -5.28515625 18.796875 C-6.07792969 18.75820313 -6.87070312 18.71953125 -7.6875 18.6796875 C-9.63635041 18.585767 -11.58572076 18.50274678 -13.53515625 18.421875 C-11.5891199 14.72373719 -9.5741 11.06948181 -7.53515625 7.421875 C-6.96087891 6.28878906 -6.96087891 6.28878906 -6.375 5.1328125 C-4.69267633 2.2023132 -3.39596588 0.56512221 0 0 Z " fill="#014F79" transform="translate(916.53515625,20.578125)"/>
<path d="M0 0 C2.97 0 5.94 0 9 0 C9.06058594 0.91523438 9.12117188 1.83046875 9.18359375 2.7734375 C9.26738281 3.96195313 9.35117187 5.15046875 9.4375 6.375 C9.51871094 7.55835938 9.59992188 8.74171875 9.68359375 9.9609375 C9.81084936 12.91518901 9.81084936 12.91518901 11 15 C14.1184325 16.0394775 16.27475586 16.11494838 19.54296875 16.09765625 C21.15268555 16.09282227 21.15268555 16.09282227 22.79492188 16.08789062 C23.91447266 16.07951172 25.03402344 16.07113281 26.1875 16.0625 C27.31865234 16.05798828 28.44980469 16.05347656 29.61523438 16.04882812 C32.41017876 16.03703511 35.20509599 16.01909957 38 16 C38.33 10.72 38.66 5.44 39 0 C41.97 0 44.94 0 48 0 C48 5.61 48 11.22 48 17 C54.435 16.505 54.435 16.505 61 16 C61.33 10.72 61.66 5.44 62 0 C64.97 0 67.94 0 71 0 C71.13558695 3.04317386 71.23437239 6.08025562 71.3125 9.125 C71.35439453 9.9809375 71.39628906 10.836875 71.43945312 11.71875 C71.52309929 16.06835058 71.44577468 19.06967114 68.66796875 22.5546875 C65.24463747 25.69232349 62.94403935 26.12406536 58.47192383 26.14526367 C57.55699661 26.15164352 56.6420694 26.15802338 55.69941711 26.16459656 C54.71192978 26.16570938 53.72444244 26.1668222 52.70703125 26.16796875 C51.68703537 26.17129715 50.66703949 26.17462555 49.61613464 26.17805481 C47.45495047 26.18312072 45.29375847 26.18546324 43.13256836 26.18530273 C39.84280281 26.18747995 36.55337766 26.2056137 33.26367188 26.22460938 C31.16145948 26.2275453 29.05924549 26.22952876 26.95703125 26.23046875 C25.49098198 26.24124702 25.49098198 26.24124702 23.99531555 26.25224304 C17.14805017 26.22960764 10.34735156 26.02007523 4.625 21.8125 C-1.1684885 15.60519089 -0.23640098 7.9982333 0 0 Z " fill="#024F7A" transform="translate(317,31)"/>
<path d="M0 0 C2.97 0 5.94 0 9 0 C9 5.61 9 11.22 9 17 C12.96 17 16.92 17 21 17 C21.04125 15.948125 21.0825 14.89625 21.125 13.8125 C21.9971605 10.0123721 22.82166188 8.2021161 25.98828125 5.87890625 C31.08459584 3.65236104 36.87456035 4.24724012 42 6.0625 C45.22241533 9.18421485 46.83600217 12.50144489 47.1328125 17.0234375 C46.78065219 22.4301341 44.83588001 25.25545047 41 29 C38.27182878 29.90939041 36.45290223 30.19209074 33.625 30.25 C32.87476563 30.27578125 32.12453125 30.3015625 31.3515625 30.328125 C29 30 29 30 26.73046875 28.52734375 C23.04260753 26.46446287 19.84713925 26.44260489 15.6875 26.3125 C14.94693359 26.27833984 14.20636719 26.24417969 13.44335938 26.20898438 C11.62941836 26.12706446 9.81473647 26.06184178 8 26 C7.69964844 26.62519531 7.39929688 27.25039063 7.08984375 27.89453125 C5.28386313 31.38350456 3.73902417 32.75365861 0 34 C-1.39439664 34.06665376 -2.79169875 34.08538199 -4.1875 34.0625 C-5.445625 34.041875 -6.70375 34.02125 -8 34 C-8 31.69 -8 29.38 -8 27 C-7.030625 26.71125 -6.06125 26.4225 -5.0625 26.125 C-1.89335797 25.35785318 -1.89335797 25.35785318 -1 23 C-0.84733388 21.26131256 -0.75067404 19.51752499 -0.68359375 17.7734375 C-0.64169922 16.7421875 -0.59980469 15.7109375 -0.55664062 14.6484375 C-0.51732422 13.56820312 -0.47800781 12.48796875 -0.4375 11.375 C-0.37272461 9.74304688 -0.37272461 9.74304688 -0.30664062 8.078125 C-0.2003547 5.3855483 -0.09831943 2.69287747 0 0 Z M31 12 C28.66703749 14.82717213 28.66703749 14.82717213 29.25 18.0625 C29.7593244 21.099459 29.7593244 21.099459 32 23 C34.60280568 22.67958603 34.60280568 22.67958603 37 22 C38.19988045 16.71800407 38.19988045 16.71800407 36 12 C33.5 11.5 33.5 11.5 31 12 Z " fill="#024F79" transform="translate(948,31)"/>
<path d="M0 0 C25.41 0 50.82 0 77 0 C77 3.63 77 7.26 77 11 C51.59 11 26.18 11 0 11 C0 7.37 0 3.74 0 0 Z " fill="#014E79" transform="translate(18,147)"/>
<path d="M0 0 C8 0 8 0 9.91796875 1.56054688 C10.33691406 2.27275391 10.75585938 2.98496094 11.1875 3.71875 C11.65800781 4.48574219 12.12851562 5.25273438 12.61328125 6.04296875 C13.07089844 6.85378906 13.52851562 7.66460937 14 8.5 C14.48855469 9.31082031 14.97710938 10.12164062 15.48046875 10.95703125 C16.67978929 12.95589881 17.84347031 14.97607304 19 17 C19.33 11.39 19.66 5.78 20 0 C22.31 0 24.62 0 27 0 C28 1 28 1 28.11352539 3.95922852 C28.10828857 5.25272217 28.10305176 6.54621582 28.09765625 7.87890625 C28.0962413 8.5655687 28.09482635 9.25223114 28.09336853 9.95970154 C28.08775479 12.16067801 28.07520007 14.36155409 28.0625 16.5625 C28.05748676 18.05143083 28.05292355 19.54036324 28.04882812 21.02929688 C28.03778093 24.68623075 28.02050713 28.34310558 28 32 C24.87379008 32.49585486 22.11037121 32.6601078 19 32 C16.4502444 29.72367068 15.01742316 27.0026148 13.4375 24 C13.00115234 23.236875 12.56480469 22.47375 12.11523438 21.6875 C11.04658037 19.8085479 10.01909678 17.90628543 9 16 C8.67 21.28 8.34 26.56 8 32 C5.36 32 2.72 32 0 32 C0 21.44 0 10.88 0 0 Z " fill="#014E79" transform="translate(700,100)"/>
<path d="M0 0 C8 0 8 0 9.82617188 1.46875 C10.20322266 2.1390625 10.58027344 2.809375 10.96875 3.5 C11.39414062 4.221875 11.81953125 4.94375 12.2578125 5.6875 C12.87269531 6.8321875 12.87269531 6.8321875 13.5 8 C13.94085937 8.763125 14.38171875 9.52625 14.8359375 10.3125 C15.91734987 12.19321716 16.96234226 14.09479235 18 16 C18.09087891 14.39318359 18.09087891 14.39318359 18.18359375 12.75390625 C18.26798537 11.35675609 18.35263406 9.95962143 18.4375 8.5625 C18.47681641 7.85544922 18.51613281 7.14839844 18.55664062 6.41992188 C18.88671875 1.11328125 18.88671875 1.11328125 20 0 C22.31 0 24.62 0 27 0 C27 10.56 27 21.12 27 32 C19 32 19 32 17.17382812 30.62304688 C16.79677734 29.99462891 16.41972656 29.36621094 16.03125 28.71875 C15.60585938 28.04199219 15.18046875 27.36523438 14.7421875 26.66796875 C14.33226562 25.95253906 13.92234375 25.23710938 13.5 24.5 C13.05914063 23.78457031 12.61828125 23.06914063 12.1640625 22.33203125 C11.08352417 20.57028398 10.03818225 18.78703502 9 17 C8.67 21.95 8.34 26.9 8 32 C5.36 32 2.72 32 0 32 C0 21.44 0 10.88 0 0 Z M7 13 C8 15 8 15 8 15 Z " fill="#014E79" transform="translate(745,100)"/>
<path d="M0 0 C2.97 0 5.94 0 9 0 C9.33 8.58 9.66 17.16 10 26 C13.96 26 17.92 26 22 26 C22.33 20.72 22.66 15.44 23 10 C25.97 10 28.94 10 32 10 C32.13558695 13.04317386 32.23437239 16.08025562 32.3125 19.125 C32.35439453 19.9809375 32.39628906 20.836875 32.43945312 21.71875 C32.52309929 26.06835058 32.44577468 29.06967114 29.66796875 32.5546875 C25.33499003 36.52605599 21.22202312 36.21218228 15.625 36.25 C14.86960937 36.270625 14.11421875 36.29125 13.3359375 36.3125 C8.69622935 36.34494551 5.8039191 35.93485893 2 33 C0 31 0 31 -0.22705078 27.92724609 C-0.21657715 26.63898926 -0.20610352 25.35073242 -0.1953125 24.0234375 C-0.1924826 23.33819 -0.18965271 22.6529425 -0.18673706 21.94692993 C-0.17553281 19.75610973 -0.15042859 17.56569684 -0.125 15.375 C-0.11497048 13.8906309 -0.10584458 12.4062554 -0.09765625 10.921875 C-0.07559294 7.28111739 -0.04106176 3.64059844 0 0 Z " fill="#014F79" transform="translate(831,21)"/>
<path d="M0 0 C8 0 8 0 9.71850586 1.36108398 C10.04729736 1.98313721 10.37608887 2.60519043 10.71484375 3.24609375 C11.09060547 3.91833984 11.46636719 4.59058594 11.85351562 5.28320312 C12.21123047 5.99412109 12.56894531 6.70503906 12.9375 7.4375 C13.69646441 8.83211299 14.45557155 10.22664831 15.21484375 11.62109375 C15.80394531 12.73613281 16.39304688 13.85117188 17 15 C17.33 15.33 17.66 15.66 18 16 C18.33 10.72 18.66 5.44 19 0 C21.64 0 24.28 0 27 0 C27 10.56 27 21.12 27 32 C19 32 19 32 16.828125 30.05859375 C16.30734375 29.19363281 15.7865625 28.32867187 15.25 27.4375 C14.71890625 26.59058594 14.1878125 25.74367188 13.640625 24.87109375 C11.76041667 21.58072917 9.88020833 18.29036458 8 15 C7.67 20.61 7.34 26.22 7 32 C4.69 32 2.38 32 0 32 C0 21.44 0 10.88 0 0 Z " fill="#014E79" transform="translate(124,100)"/>
<path d="M0 0 C8 0 8 0 9.91796875 1.65234375 C10.33691406 2.40644531 10.75585938 3.16054687 11.1875 3.9375 C11.65800781 4.74960938 12.12851562 5.56171875 12.61328125 6.3984375 C13.07089844 7.25695312 13.52851562 8.11546875 14 9 C14.48855469 9.85851562 14.97710938 10.71703125 15.48046875 11.6015625 C16.68055023 13.71935335 17.84392843 15.85786738 19 18 C19.33 12.06 19.66 6.12 20 0 C22.31 0 24.62 0 27 0 C27 10.56 27 21.12 27 32 C19 32 19 32 17.17382812 30.53125 C16.79677734 29.8609375 16.41972656 29.190625 16.03125 28.5 C15.60585938 27.778125 15.18046875 27.05625 14.7421875 26.3125 C14.33226562 25.549375 13.92234375 24.78625 13.5 24 C13.05914063 23.236875 12.61828125 22.47375 12.1640625 21.6875 C11.08265013 19.80678284 10.03765774 17.90520765 9 16 C8.67 21.28 8.34 26.56 8 32 C5.36 32 2.72 32 0 32 C0 21.44 0 10.88 0 0 Z " fill="#014E79" transform="translate(881,100)"/>
<path d="M0 0 C8 0 8 0 9.91796875 1.65234375 C10.33691406 2.40644531 10.75585938 3.16054687 11.1875 3.9375 C11.65800781 4.74960938 12.12851562 5.56171875 12.61328125 6.3984375 C13.07089844 7.25695312 13.52851562 8.11546875 14 9 C14.48855469 9.85851562 14.97710938 10.71703125 15.48046875 11.6015625 C16.68055023 13.71935335 17.84392843 15.85786738 19 18 C19.33 12.06 19.66 6.12 20 0 C22.31 0 24.62 0 27 0 C27 10.56 27 21.12 27 32 C19 32 19 32 17.17382812 30.53125 C16.79677734 29.8609375 16.41972656 29.190625 16.03125 28.5 C15.60585938 27.778125 15.18046875 27.05625 14.7421875 26.3125 C14.33226562 25.549375 13.92234375 24.78625 13.5 24 C13.05914063 23.236875 12.61828125 22.47375 12.1640625 21.6875 C11.08265013 19.80678284 10.03765774 17.90520765 9 16 C8.67 21.28 8.34 26.56 8 32 C5.36 32 2.72 32 0 32 C0 21.44 0 10.88 0 0 Z " fill="#014E79" transform="translate(502,100)"/>
<path d="M0 0 C3.75879956 1.56616648 5.93632004 3.49174407 8 7 C8.6875 9.75 8.6875 9.75 9 12 C6.36 12 3.72 12 1 12 C0.34 10.68 -0.32 9.36 -1 8 C-3.64 8 -6.28 8 -9 8 C-11.66417549 13.22178395 -12.36235342 16.09646852 -11 22 C-10.67 22.99 -10.34 23.98 -10 25 C-4.63909407 25.53673893 -4.63909407 25.53673893 0 23.5 C0.33 23.005 0.66 22.51 1 22 C-0.98 21.67 -2.96 21.34 -5 21 C-5 18.69 -5 16.38 -5 14 C-0.38 14 4.24 14 9 14 C9 19.94 9 25.88 9 32 C6.33333333 32 3.66666667 32 1 32 C0.01 32.495 0.01 32.495 -1 33 C-6.60727817 33.37381854 -10.16772538 33.18490827 -15 30 C-18.75028678 26.14553859 -21 22.28141579 -21 16.79296875 C-20.49423588 10.43930703 -18.7486318 6.96721077 -14.5 2.1875 C-10.2288942 -1.20583468 -5.16729798 -0.72578842 0 0 Z " fill="#03507A" transform="translate(796,100)"/>
<path d="M0 0 C3.01125 -0.061875 6.0225 -0.12375 9.125 -0.1875 C10.06230957 -0.21481201 10.99961914 -0.24212402 11.96533203 -0.27026367 C17.05682897 -0.32069064 20.63185792 0.08110132 25 3 C27.47717167 6.71575751 27.30345742 8.59986738 27 13 C26.62875 13.86625 26.2575 14.7325 25.875 15.625 C24.69106639 18.83853408 25.65825625 19.89280394 27 23 C27.46873993 25.98884708 27.75044308 28.98561505 28 32 C21.84765625 32.09765625 21.84765625 32.09765625 20 32 C17.73293933 29.73293933 18.25590776 23.88810189 18 21 C14.7 20.67 11.4 20.34 8 20 C8 23.96 8 27.92 8 32 C5.36 32 2.72 32 0 32 C0 21.44 0 10.88 0 0 Z M8 7 C8 9.31 8 11.62 8 14 C9.64574566 14.02688151 11.29161413 14.04634123 12.9375 14.0625 C14.31228516 14.07990234 14.31228516 14.07990234 15.71484375 14.09765625 C17.96593327 14.25949049 17.96593327 14.25949049 19 13 C19.16666667 10.5 19.16666667 10.5 19 8 C17.96593327 6.74050951 17.96593327 6.74050951 15.71484375 6.90234375 C14.79832031 6.91394531 13.88179687 6.92554687 12.9375 6.9375 C12.01839844 6.94652344 11.09929688 6.95554687 10.15234375 6.96484375 C9.44207031 6.97644531 8.73179687 6.98804687 8 7 Z " fill="#014E79" transform="translate(939,100)"/>
<path d="M0 0 C3.031875 -0.061875 6.06375 -0.12375 9.1875 -0.1875 C10.60712036 -0.22846802 10.60712036 -0.22846802 12.05541992 -0.27026367 C16.86680436 -0.31775956 20.11252337 -0.16757355 24 3 C26.37603573 5.93044407 27.04478853 7.26845394 26.8125 11.0625 C26.1059663 13.61689108 25.31934493 15.71313546 24 18 C24.66 18.99 25.32 19.98 26 21 C26.4140625 23.69921875 26.4140625 23.69921875 26.625 26.6875 C26.69976562 27.68136719 26.77453125 28.67523438 26.8515625 29.69921875 C26.90054687 30.45847656 26.94953125 31.21773437 27 32 C24.36 32 21.72 32 19 32 C18.80083984 30.93458984 18.80083984 30.93458984 18.59765625 29.84765625 C18.42105469 28.92855469 18.24445313 28.00945312 18.0625 27.0625 C17.88847656 26.14597656 17.71445312 25.22945312 17.53515625 24.28515625 C17.22285012 22.04710156 17.22285012 22.04710156 16 21 C14.65252916 20.76924918 13.29622435 20.58846937 11.9375 20.4375 C10.638125 20.293125 9.33875 20.14875 8 20 C8 23.96 8 27.92 8 32 C5.36 32 2.72 32 0 32 C0 21.44 0 10.88 0 0 Z M8 7 C8 9.31 8 11.62 8 14 C9.47906892 14.02689216 10.95827483 14.04634621 12.4375 14.0625 C13.67306641 14.07990234 13.67306641 14.07990234 14.93359375 14.09765625 C16.99163938 14.23267348 16.99163938 14.23267348 18 13 C18.16666667 10.5 18.16666667 10.5 18 8 C16.99163938 6.76732652 16.99163938 6.76732652 14.93359375 6.90234375 C13.69802734 6.91974609 13.69802734 6.91974609 12.4375 6.9375 C11.19806641 6.95103516 11.19806641 6.95103516 9.93359375 6.96484375 C8.97646484 6.98224609 8.97646484 6.98224609 8 7 Z " fill="#014E79" transform="translate(269,100)"/>
<path d="M0 0 C4.47869579 4.36945931 6.75541705 8.8190134 7 15.125 C6.74635972 19.88689175 5.5797416 23.51503427 2.09765625 26.94140625 C-2.52771908 30.91086039 -5.1952668 31.8004496 -11.12109375 31.71484375 C-15.61274648 31.29824864 -18.42967691 29.42383784 -21.6875 26.4375 C-24.55759153 21.61984636 -25.91357837 16.63914178 -25.0625 11.02734375 C-23.60101168 6.05330112 -21.55651104 2.79520883 -17.4375 -0.5 C-11.65956218 -2.42597927 -5.58522001 -2.43718691 0 0 Z M-14.875 6.8125 C-17.40925584 11.17142005 -17.16729436 15.59250525 -16.4375 20.5 C-15.03662251 23.3213337 -15.03662251 23.3213337 -12.4375 24.5 C-9.4375 25.16666667 -9.4375 25.16666667 -6.4375 24.5 C-4.13474444 22.6329009 -2.75926129 21.14352259 -1.4375 18.5 C-1.05825862 13.47505174 -1.43383498 10.58498443 -4.4375 6.5 C-5.59495487 5.13002255 -5.59495487 5.13002255 -8.75 5.1875 C-12.35419022 5.24654382 -12.35419022 5.24654382 -14.875 6.8125 Z " fill="#03507A" transform="translate(362.4375,101.5)"/>
<path d="M0 0 C5.17703551 2.45227998 7.73135045 5.54004668 9.6875 10.875 C10.68299974 17.6443982 9.79685357 22.36595922 6 28 C1.60190796 32.18355097 -1.85150523 33.31541092 -7.94140625 33.21484375 C-12.40657554 32.74883936 -15.22618878 30.81680073 -18.25 27.625 C-21.54634246 22.6804863 -22.51573102 18.98247985 -22 13 C-20.29439275 7.79340946 -18.12316417 4.59455338 -14 1 C-9.81612181 -1.0919391 -4.55616307 -0.42881535 0 0 Z M-11.9375 8.5625 C-13.59656066 12.36858034 -14.58900252 15.86009877 -13.45703125 19.97265625 C-12.03527495 23.67542586 -12.03527495 23.67542586 -9 26 C-5.51976047 26.37828691 -3.65953219 26.42780466 -0.6875 24.5 C1.5764715 21.14596815 2.22168518 17.98268889 2 14 C0.49408732 10.18594967 0.49408732 10.18594967 -2 7 C-7.37329833 6.34735906 -7.37329833 6.34735906 -11.9375 8.5625 Z " fill="#03507A" transform="translate(489,100)"/>
<path d="M0 0 C3.2509946 2.60079568 4.87107282 4.80071845 6.1875 8.75 C6.36216964 11.53612399 6.46447439 14.27492412 6.5 17.0625 C6.52900391 17.80951172 6.55800781 18.55652344 6.58789062 19.32617188 C6.64792097 24.58575356 5.73978956 27.62166349 2.1875 31.75 C-0.56328884 32.66692961 -2.17198913 32.85886083 -5 32.8125 C-6.258125 32.791875 -7.51625 32.77125 -8.8125 32.75 C-8.6475 31.698125 -8.4825 30.64625 -8.3125 29.5625 C-8.35721531 25.79501775 -8.35721531 25.79501775 -10.48828125 24.41796875 C-11.93418812 23.62761015 -13.38082448 22.8385849 -14.828125 22.05078125 C-18.12307887 19.89090007 -18.86528963 17.47569413 -19.8125 13.75 C-19.98711914 9.5829524 -19.25351824 6.44954618 -17 2.875 C-12.08037292 -1.90406631 -6.30380033 -2.80168904 0 0 Z M-8.8125 6.75 C-11.07896351 9.50556583 -11.07896351 9.50556583 -10.6875 12.3125 C-10.03898849 14.90175712 -10.03898849 14.90175712 -7.75 16.0625 C-7.110625 16.289375 -6.47125 16.51625 -5.8125 16.75 C-4.12568262 15.64958081 -4.12568262 15.64958081 -2.8125 13.75 C-3.04533149 10.60078091 -3.04533149 10.60078091 -3.8125 7.75 C-5.4625 7.42 -7.1125 7.09 -8.8125 6.75 Z " fill="#014E79" transform="translate(521.8125,32.25)"/>
<path d="M0 0 C5.9090625 -0.0309375 5.9090625 -0.0309375 11.9375 -0.0625 C13.18136475 -0.071604 14.42522949 -0.08070801 15.70678711 -0.09008789 C17.16483765 -0.09383423 17.16483765 -0.09383423 18.65234375 -0.09765625 C20.15269165 -0.10551147 20.15269165 -0.10551147 21.68334961 -0.11352539 C24 0 24 0 25 1 C25 2.98 25 4.96 25 7 C19.39 7 13.78 7 8 7 C8 8.98 8 10.96 8 13 C12.95 13 17.9 13 23 13 C23 14.98 23 16.96 23 19 C18.05 19 13.1 19 8 19 C8 20.98 8 22.96 8 25 C13.61 25 19.22 25 25 25 C25 27.31 25 29.62 25 32 C16.75 32 8.5 32 0 32 C0 21.44 0 10.88 0 0 Z " fill="#06527C" transform="translate(970,100)"/>
<path d="M0 0 C3.625 1.5625 3.625 1.5625 6 4 C6.875 7.75 6.875 7.75 7 11 C4.36 11 1.72 11 -1 11 C-1.33 10.01 -1.66 9.02 -2 8 C-5.97754128 7.26665571 -5.97754128 7.26665571 -10 7 C-9.67 7.99 -9.34 8.98 -9 10 C-6.37631544 11.07215927 -6.37631544 11.07215927 -3.25 11.875 C1.64174876 13.41823026 5.09160926 14.53354279 8 19 C8.67656373 23.20972987 8.50990012 25.18051767 6.25 28.8125 C2.78320158 32.18299846 0.01372514 33.29899645 -4.8125 33.375 C-10.00337743 33.26765541 -12.85627228 32.10779579 -17 29 C-19.1518868 26.00607054 -19 24.86092651 -19 21 C-16.36 21 -13.72 21 -11 21 C-10.34 22.32 -9.68 23.64 -9 25 C-6.36 25 -3.72 25 -1 25 C-1.33 23.68 -1.66 22.36 -2 21 C-3.10408203 20.76216797 -3.10408203 20.76216797 -4.23046875 20.51953125 C-14.69268327 18.01799779 -14.69268327 18.01799779 -18 13 C-18.625 9.5 -18.625 9.5 -18 6 C-12.65663482 -0.46828417 -8.04844182 -0.79350835 0 0 Z " fill="#03507A" transform="translate(230,100)"/>
<path d="M0 0 C10.89 0 21.78 0 33 0 C33 14 33 14 30 20 C28.68 18.68 27.36 17.36 26 16 C25.01 17.32 24.02 18.64 23 20 C22.34 18.35 21.68 16.7 21 15 C20.34 15 19.68 15 19 15 C18.01 17.475 18.01 17.475 17 20 C15.68 18.68 14.36 17.36 13 16 C12.01 17.32 11.02 18.64 10 20 C9.34 18.35 8.68 16.7 8 15 C7.34 15 6.68 15 6 15 C5.67 16.65 5.34 18.3 5 20 C4.34 20 3.68 20 3 20 C2.67 19.34 2.34 18.68 2 18 C1.67 20.97 1.34 23.94 1 27 C0.67 27 0.34 27 0 27 C0 18.09 0 9.18 0 0 Z " fill="#FDF8F7" transform="translate(40,0)"/>
<path d="M0 0 C7.92 0 15.84 0 24 0 C24 2.31 24 4.62 24 7 C18.72 7 13.44 7 8 7 C8 8.98 8 10.96 8 13 C12.95 13 17.9 13 23 13 C23 14.98 23 16.96 23 19 C18.05 19 13.1 19 8 19 C8 20.98 8 22.96 8 25 C13.61 25 19.22 25 25 25 C25 27.31 25 29.62 25 32 C16.75 32 8.5 32 0 32 C0 21.44 0 10.88 0 0 Z " fill="#014E79" transform="translate(853,100)"/>
<path d="M0 0 C3.625 1.5625 3.625 1.5625 6 4 C6.875 7.75 6.875 7.75 7 11 C4.36 11 1.72 11 -1 11 C-1.66 9.68 -2.32 8.36 -3 7 C-5.31 7 -7.62 7 -10 7 C-9.67 7.99 -9.34 8.98 -9 10 C-6.37631544 11.07215927 -6.37631544 11.07215927 -3.25 11.875 C1.64174876 13.41823026 5.09160926 14.53354279 8 19 C8.67656373 23.20972987 8.50990012 25.18051767 6.25 28.8125 C2.78320158 32.18299846 0.01372514 33.29899645 -4.8125 33.375 C-10.00337743 33.26765541 -12.85627228 32.10779579 -17 29 C-19.1518868 26.00607054 -19 24.86092651 -19 21 C-16.36 21 -13.72 21 -11 21 C-10.34 22.32 -9.68 23.64 -9 25 C-6.36 25 -3.72 25 -1 25 C-0.67 23.68 -0.34 22.36 0 21 C-0.80824219 20.82984375 -1.61648437 20.6596875 -2.44921875 20.484375 C-13.86126599 17.89635946 -13.86126599 17.89635946 -17 14 C-18.14009771 10.08091414 -18.40888632 7.96841496 -16.8125 4.1875 C-12.40872786 -1.12739741 -6.42543236 -0.73353924 0 0 Z " fill="#03507A" transform="translate(202,100)"/>
<path d="M0 0 C7.92 0 15.84 0 24 0 C24 2.31 24 4.62 24 7 C18.72 7 13.44 7 8 7 C8 8.98 8 10.96 8 13 C12.95 13 17.9 13 23 13 C23 14.98 23 16.96 23 19 C18.05 19 13.1 19 8 19 C8 20.98 8 22.96 8 25 C9.14339844 24.98839844 10.28679687 24.97679688 11.46484375 24.96484375 C12.95572754 24.95546712 14.44661309 24.94636679 15.9375 24.9375 C16.69224609 24.92912109 17.44699219 24.92074219 18.22460938 24.91210938 C20.14994313 24.90347559 22.07535581 24.94775667 24 25 C25 26 25 26 25 32 C16.75 32 8.5 32 0 32 C0 21.44 0 10.88 0 0 Z " fill="#014E79" transform="translate(241,100)"/>
<path d="M0 0 C2.75151959 2.61394361 4.12180492 4.8529459 5.5 8.375 C5.5 9.035 5.5 9.695 5.5 10.375 C0.10247235 10.72893624 0.10247235 10.72893624 -2.5 10.375 C-3.5260734 9.06162604 -4.52727325 7.72835895 -5.5 6.375 C-9 5.625 -9 5.625 -12.5 6.375 C-15.15790852 9.20438649 -15.47401609 11.07878347 -15.8125 14.9375 C-15.57138287 19.05794456 -15.57138287 19.05794456 -13.5 22.375 C-10.08333333 23.45833333 -10.08333333 23.45833333 -6.5 23.375 C-3.8520265 21.60968433 -3.5230014 20.44400421 -2.5 17.375 C0.14 17.375 2.78 17.375 5.5 17.375 C5.11104749 22.82033513 3.2851047 25.50186961 -0.5 29.375 C-4.74872904 31.9452188 -8.65719899 32.01307175 -13.5 31.375 C-17.92057222 30.01083904 -20.62601069 27.74257244 -22.9375 23.75 C-24.97079407 18.99385996 -25.43511841 14.46172172 -24.5 9.375 C-22.82822193 5.32573426 -20.5497092 2.3629616 -17.375 -0.625 C-11.48514876 -2.67364391 -5.65272768 -2.62448071 0 0 Z " fill="#03507A" transform="translate(395.5,101.625)"/>
<path d="M0 0 C4.99612838 2.31963103 7.00634762 4.90511058 9 10 C9 10.66 9 11.32 9 12 C3.60247235 12.35393624 3.60247235 12.35393624 1 12 C-0.0260734 10.68662604 -1.02727325 9.35335895 -2 8 C-5.5 7.25 -5.5 7.25 -9 8 C-11.65790852 10.82938649 -11.97401609 12.70378347 -12.3125 16.5625 C-12.07138287 20.68294456 -12.07138287 20.68294456 -10 24 C-6.58333333 25.08333333 -6.58333333 25.08333333 -3 25 C-0.3520265 23.23468433 -0.0230014 22.06900421 1 19 C3.64 19 6.28 19 9 19 C8.74537391 24.21983494 6.88742925 26.80651897 3.5703125 30.58203125 C0.33440544 33.50400703 -3.52184079 33.34341016 -7.65234375 33.26953125 C-11.47557799 32.83059088 -14.16760263 31.60492504 -17 29 C-20.42694492 24.5084716 -21.67348608 19.84828142 -21.3828125 14.23828125 C-20.47454163 8.92767709 -18.26435042 5.2335126 -14.4375 1.5 C-9.55313771 -0.63135809 -5.24855671 -0.76541452 0 0 Z " fill="#03507A" transform="translate(841,100)"/>
<path d="M0 0 C3.96 0 7.92 0 12 0 C12 1.98 12 3.96 12 6 C12.77372452 5.98667633 13.54744904 5.97335266 14.34461975 5.95962524 C21.65628121 5.8391227 28.96745749 5.74791284 36.27985477 5.68912697 C40.03880935 5.65788733 43.79693968 5.61555408 47.55541992 5.54736328 C51.18649258 5.48190056 54.8167754 5.44623859 58.44839287 5.43073654 C59.82990382 5.41969774 61.21137422 5.39814043 62.59254646 5.36561966 C74.75597671 5.0907588 74.75597671 5.0907588 79.36132812 8.8359375 C81.6218961 11.110221 81.98741467 11.9408849 82.68359375 15.2109375 C82.56177734 16.77714844 82.56177734 16.77714844 82.4375 18.375 C82.37433594 19.43460938 82.31117187 20.49421875 82.24609375 21.5859375 C82.16488281 22.38257813 82.08367187 23.17921875 82 24 C81.67 24 81.34 24 81 24 C81 20.37 81 16.74 81 13 C55.59 13 30.18 13 4 13 C5.65 11.02 7.3 9.04 9 7 C9.66 7 10.32 7 11 7 C11 5.02 11 3.04 11 1 C7.37 1 3.74 1 0 1 C0 0.67 0 0.34 0 0 Z " fill="#F9C111" transform="translate(14,134)"/>
<path d="M0 0 C2.64 0 5.28 0 8 0 C16.72551414 21.4010063 16.72551414 21.4010063 20 32 C17.03 32 14.06 32 11 32 C10.34 30.02 9.68 28.04 9 26 C5.7 26 2.4 26 -1 26 C-1.66 27.98 -2.32 29.96 -3 32 C-5.97 32 -8.94 32 -12 32 C-8.27641107 21.21215547 -4.33383119 10.55795046 0 0 Z M3 12 C2.34 14.31 1.68 16.62 1 19 C2.98 19 4.96 19 7 19 C6.34 16.69 5.68 14.38 5 12 C4.34 12 3.68 12 3 12 Z " fill="#014E79" transform="translate(164,100)"/>
<path d="M0 0 C2.64 0 5.28 0 8 0 C11.00242385 6.55542678 13.69220997 13.19724959 16.25 19.9375 C16.61351562 20.88173828 16.97703125 21.82597656 17.3515625 22.79882812 C17.69445312 23.69923828 18.03734375 24.59964844 18.390625 25.52734375 C18.70032227 26.33937256 19.01001953 27.15140137 19.32910156 27.98803711 C20 30 20 30 20 32 C17.36 32 14.72 32 12 32 C10.5393715 29.35261084 10 28.10551666 10 25 C9.34 25.33 8.68 25.66 8 26 C5.3276379 26.13415472 2.67749512 26.04318541 0 26 C-0.99 27.98 -1.98 29.96 -3 32 C-5.64 32 -8.28 32 -11 32 C-10.32046791 28.00409121 -9.13496661 24.39845512 -7.71484375 20.60546875 C-7.26689453 19.40341797 -6.81894531 18.20136719 -6.35742188 16.96289062 C-5.88419654 15.70439626 -5.41088821 14.4459331 -4.9375 13.1875 C-4.45994011 11.90963459 -3.982723 10.63164102 -3.50585938 9.35351562 C-2.34060488 6.23440005 -1.17186993 3.11663485 0 0 Z M4 11 C2.515 14.96 2.515 14.96 1 19 C2.98 19 4.96 19 7 19 C6.34 16.36 5.68 13.72 5 11 C4.67 11 4.34 11 4 11 Z " fill="#014E79" transform="translate(542,100)"/>
<path d="M0 0 C2.05078125 0.03255208 4.1015625 0.06510417 6.15234375 0.09765625 C7.72303233 4.33198353 9.28950224 8.5678379 10.85205078 12.80517578 C11.38441611 14.24701209 11.91794002 15.68842117 12.45263672 17.12939453 C13.22016141 19.19843605 13.98353215 21.26896876 14.74609375 23.33984375 C14.98670532 23.98573456 15.22731689 24.63162537 15.47521973 25.29708862 C17.15234375 29.86991284 17.15234375 29.86991284 17.15234375 32.09765625 C14.51234375 32.09765625 11.87234375 32.09765625 9.15234375 32.09765625 C8.16234375 30.11765625 7.17234375 28.13765625 6.15234375 26.09765625 C3.18234375 26.09765625 0.21234375 26.09765625 -2.84765625 26.09765625 C-3.83765625 28.07765625 -4.82765625 30.05765625 -5.84765625 32.09765625 C-8.48765625 32.09765625 -11.12765625 32.09765625 -13.84765625 32.09765625 C-11.81153702 24.93428931 -9.39964019 17.98256694 -6.72265625 11.03515625 C-6.36300781 10.08705078 -6.00335938 9.13894531 -5.6328125 8.16210938 C-2.56019076 0.13531664 -2.56019076 0.13531664 0 0 Z M1.15234375 11.09765625 C-0.10430603 14.00365886 -0.84765625 15.89370209 -0.84765625 19.09765625 C0.80234375 19.09765625 2.45234375 19.09765625 4.15234375 19.09765625 C3.70530389 14.61881929 3.70530389 14.61881929 1.15234375 11.09765625 Z " fill="#014E79" transform="translate(414.84765625,99.90234375)"/>
<path d="M0 0 C2.97 0 5.94 0 9 0 C9.83857688 2.60258324 10.67103344 5.20685647 11.5 7.8125 C11.73847656 8.55048828 11.97695313 9.28847656 12.22265625 10.04882812 C13.19940136 13.13255196 14 15.74495809 14 19 C14.66 19 15.32 19 16 19 C16.0825 18.0925 16.165 17.185 16.25 16.25 C17.0268887 10.62625347 19.11803229 5.33078295 21 0 C23.64 0 26.28 0 29 0 C28.37752765 6.78883911 26.19104077 12.94743636 24 19.375 C23.63132812 20.47972656 23.26265625 21.58445312 22.8828125 22.72265625 C20.14050904 30.85949096 20.14050904 30.85949096 19 32 C17.48071962 32.07179964 15.95832518 32.08392007 14.4375 32.0625 C13.61121094 32.05347656 12.78492188 32.04445312 11.93359375 32.03515625 C11.29550781 32.02355469 10.65742188 32.01195312 10 32 C8.57399373 27.60403226 7.14987791 23.20745846 5.72753906 18.81030273 C5.24303752 17.31338808 4.75801256 15.81664273 4.27246094 14.32006836 C3.57610798 12.17345379 2.88161717 10.02624465 2.1875 7.87890625 C1.96876221 7.20598038 1.75002441 6.5330545 1.5246582 5.83973694 C0 1.11387171 0 1.11387171 0 0 Z " fill="#014E79" transform="translate(308,100)"/>
<path d="M0 0 C8.91 0 17.82 0 27 0 C27 2.31 27 4.62 27 7 C22.545 7.495 22.545 7.495 18 8 C18 15.92 18 23.84 18 32 C15.03 32 12.06 32 9 32 C9 23.75 9 15.5 9 7 C6.03 7 3.06 7 0 7 C0 4.69 0 2.38 0 0 Z " fill="#014E79" transform="translate(427,100)"/>
<path d="M0 0 C1.084021 0.00523682 2.16804199 0.01047363 3.28491211 0.01586914 C5.03964844 0.02070312 5.03964844 0.02070312 6.82983398 0.02563477 C8.67738281 0.03820312 8.67738281 0.03820312 10.56225586 0.05102539 C12.41560547 0.05779297 12.41560547 0.05779297 14.30639648 0.06469727 C17.37089703 0.07652931 20.43530307 0.09301366 23.49975586 0.11352539 C23.49975586 2.42352539 23.49975586 4.73352539 23.49975586 7.11352539 C20.52975586 7.11352539 17.55975586 7.11352539 14.49975586 7.11352539 C14.49975586 15.36352539 14.49975586 23.61352539 14.49975586 32.11352539 C11.85975586 32.11352539 9.21975586 32.11352539 6.49975586 32.11352539 C6.49975586 23.86352539 6.49975586 15.61352539 6.49975586 7.11352539 C3.19975586 7.11352539 -0.10024414 7.11352539 -3.50024414 7.11352539 C-3.5427877 5.11397793 -3.54105197 3.11310903 -3.50024414 1.11352539 C-2.50024414 0.11352539 -2.50024414 0.11352539 0 0 Z " fill="#014E79" transform="translate(913.500244140625,99.886474609375)"/>
<path d="M0 0 C1.084021 0.00523682 2.16804199 0.01047363 3.28491211 0.01586914 C5.03964844 0.02070312 5.03964844 0.02070312 6.82983398 0.02563477 C8.67738281 0.03820312 8.67738281 0.03820312 10.56225586 0.05102539 C12.41560547 0.05779297 12.41560547 0.05779297 14.30639648 0.06469727 C17.37089703 0.07652931 20.43530307 0.09301366 23.49975586 0.11352539 C23.49975586 2.42352539 23.49975586 4.73352539 23.49975586 7.11352539 C20.52975586 7.11352539 17.55975586 7.11352539 14.49975586 7.11352539 C14.49975586 15.36352539 14.49975586 23.61352539 14.49975586 32.11352539 C11.85975586 32.11352539 9.21975586 32.11352539 6.49975586 32.11352539 C6.49975586 23.86352539 6.49975586 15.61352539 6.49975586 7.11352539 C3.19975586 7.11352539 -0.10024414 7.11352539 -3.50024414 7.11352539 C-3.5427877 5.11397793 -3.54105197 3.11310903 -3.50024414 1.11352539 C-2.50024414 0.11352539 -2.50024414 0.11352539 0 0 Z " fill="#014E79" transform="translate(601.500244140625,99.886474609375)"/>
<path d="M0 0 C2.64 0 5.28 0 8 0 C8 8.25 8 16.5 8 25 C12.95 25 17.9 25 23 25 C23 27.31 23 29.62 23 32 C15.41 32 7.82 32 0 32 C0 21.44 0 10.88 0 0 Z " fill="#014E79" transform="translate(563,100)"/>
<path d="M0 0 C2.97 0 5.94 0 9 0 C9.08776185 3.68734775 9.14064603 7.37442347 9.1875 11.0625 C9.21263672 12.10083984 9.23777344 13.13917969 9.26367188 14.20898438 C9.32927177 21.09697335 8.94141277 26.32323404 4.5 31.875 C1.72378867 33.9571585 -0.85323399 34.1171601 -4.1875 34.0625 C-5.445625 34.041875 -6.70375 34.02125 -8 34 C-8 31.69 -8 29.38 -8 27 C-7.030625 26.71125 -6.06125 26.4225 -5.0625 26.125 C-1.89335797 25.35785318 -1.89335797 25.35785318 -1 23 C-0.84733388 21.26131256 -0.75067404 19.51752499 -0.68359375 17.7734375 C-0.64169922 16.7421875 -0.59980469 15.7109375 -0.55664062 14.6484375 C-0.51732422 13.56820312 -0.47800781 12.48796875 -0.4375 11.375 C-0.37272461 9.74304688 -0.37272461 9.74304688 -0.30664062 8.078125 C-0.2003547 5.3855483 -0.09831943 2.69287747 0 0 Z " fill="#014E79" transform="translate(399,31)"/>
<path d="M0 0 C2.97 0 5.94 0 9 0 C9 11.88 9 23.76 9 36 C6.03 36 3.06 36 0 36 C0 24.12 0 12.24 0 0 Z " fill="#03507A" transform="translate(489,21)"/>
<path d="M0 0 C2.97 0 5.94 0 9 0 C9.02465098 4.96622349 9.04283649 9.93241166 9.05493164 14.89868164 C9.0599719 16.58944316 9.06680405 18.28020029 9.07543945 19.97094727 C9.08751857 22.39600707 9.09323123 24.82100944 9.09765625 27.24609375 C9.10281754 28.00651474 9.10797882 28.76693573 9.11329651 29.55039978 C9.11349238 31.3673257 9.06197277 33.18413127 9 35 C8.505 35.495 8.505 35.495 8 36 C5.36 36 2.72 36 0 36 C0 24.12 0 12.24 0 0 Z " fill="#024F7A" transform="translate(295,21)"/>
<path d="M0 0 C20.13 0 40.26 0 61 0 C61 1.65 61 3.3 61 5 C40.87 5 20.74 5 0 5 C0 3.35 0 1.7 0 0 Z " fill="#024D7A" transform="translate(26,135)"/>
<path d="M0 0 C2.64 0 5.28 0 8 0 C8 10.56 8 21.12 8 32 C5.36 32 2.72 32 0 32 C0 21.44 0 10.88 0 0 Z " fill="#014E79" transform="translate(732,100)"/>
<path d="M0 0 C2.64 0 5.28 0 8 0 C8 10.56 8 21.12 8 32 C5.36 32 2.72 32 0 32 C0 21.44 0 10.88 0 0 Z " fill="#014E79" transform="translate(688,100)"/>
<path d="M0 0 C2.64 0 5.28 0 8 0 C8 10.56 8 21.12 8 32 C5.36 32 2.72 32 0 32 C0 21.44 0 10.88 0 0 Z " fill="#014E79" transform="translate(456,100)"/>
<path d="M0 0 C10.56 0 21.12 0 32 0 C32 1.65 32 3.3 32 5 C21.44 5 10.88 5 0 5 C0 3.35 0 1.7 0 0 Z " fill="#0E567E" transform="translate(41,0)"/>
<path d="M0 0 C3.96 0 7.92 0 12 0 C13.07421875 5.95703125 13.07421875 5.95703125 13 8 C12.01 8.99 11.02 9.98 10 11 C33.76 11.33 57.52 11.66 82 12 C82 15.96 82 19.92 82 24 C81.67 24 81.34 24 81 24 C81 20.37 81 16.74 81 13 C55.59 13 30.18 13 4 13 C5.65 11.02 7.3 9.04 9 7 C9.66 7 10.32 7 11 7 C11 5.02 11 3.04 11 1 C7.37 1 3.74 1 0 1 C0 0.67 0 0.34 0 0 Z " fill="#C9B03E" transform="translate(14,134)"/>
<path d="M0 0 C7.8765416 -0.02331808 15.75307489 -0.04101325 23.62964249 -0.05181217 C27.28826377 -0.05699885 30.94686119 -0.06401852 34.60546875 -0.07543945 C38.14571106 -0.08641991 41.68593062 -0.09230845 45.22618866 -0.09487724 C47.21332043 -0.09758498 49.20044323 -0.1053721 51.18756104 -0.11329651 C58.84433006 -0.11376276 66.38207063 0.22151298 74 1 C74 1.33 74 1.66 74 2 C70.04 2 66.08 2 62 2 C62 3.65 62 5.3 62 7 C61.67 7 61.34 7 61 7 C61 5.35 61 3.7 61 2 C40.87 2 20.74 2 0 2 C0 1.34 0 0.68 0 0 Z " fill="#547773" transform="translate(26,133)"/>
<path d="M0 0 C2 0.75 2 0.75 4 3.75 C2.35 4.41 0.7 5.07 -1 5.75 C0.65 5.75 2.3 5.75 4 5.75 C4 7.07 4 8.39 4 9.75 C0.37 9.75 -3.26 9.75 -7 9.75 C-7 8.43 -7 7.11 -7 5.75 C-6.34 5.75 -5.68 5.75 -5 5.75 C-4.87625 4.945625 -4.7525 4.14125 -4.625 3.3125 C-4.41875 2.466875 -4.2125 1.62125 -4 0.75 C-2 -0.25 -2 -0.25 0 0 Z " fill="#09547D" transform="translate(657,9.25)"/>
<path d="M0 0 C2.64 0 5.28 0 8 0 C8 2.64 8 5.28 8 8 C5.36 8 2.72 8 0 8 C0 5.36 0 2.72 0 0 Z " fill="#155C83" transform="translate(146,69)"/>
<path d="M0 0 C2.64 0 5.28 0 8 0 C8 2.64 8 5.28 8 8 C5.36 8 2.72 8 0 8 C0 5.36 0 2.72 0 0 Z " fill="#155C83" transform="translate(136,69)"/>
<path d="M0 0 C2.97 0 5.94 0 9 0 C9.05811773 3.74993479 9.09363593 7.49975352 9.125 11.25 C9.14175781 12.31347656 9.15851563 13.37695312 9.17578125 14.47265625 C9.18222656 15.49746094 9.18867188 16.52226563 9.1953125 17.578125 C9.20578613 18.52075195 9.21625977 19.46337891 9.22705078 20.43457031 C9 23 9 23 7 27 C7 18.75 7 10.5 7 2 C4.69 2 2.38 2 0 2 C0 1.34 0 0.68 0 0 Z " fill="#3F7496" transform="translate(399,31)"/>
<path d="M0 0 C2.64 0 5.28 0 8 0 C8.04241723 2.33294775 8.04092937 4.66702567 8 7 C7 8 7 8 3.4375 8.0625 C2.303125 8.041875 1.16875 8.02125 0 8 C0 5.36 0 2.72 0 0 Z " fill="#155C83" transform="translate(591,58)"/>
<path d="M0 0 C2.64 0 5.28 0 8 0 C8.04241723 2.33294775 8.04092937 4.66702567 8 7 C7 8 7 8 3.4375 8.0625 C2.303125 8.041875 1.16875 8.02125 0 8 C0 5.36 0 2.72 0 0 Z " fill="#155C83" transform="translate(581,58)"/>
<path d="M0 0 C2.64 0 5.28 0 8 0 C8.04241723 2.33294775 8.04092937 4.66702567 8 7 C7 8 7 8 3.4375 8.0625 C2.303125 8.041875 1.16875 8.02125 0 8 C0 5.36 0 2.72 0 0 Z " fill="#155C83" transform="translate(380,58)"/>
<path d="M0 0 C2.64 0 5.28 0 8 0 C8.04241723 2.33294775 8.04092937 4.66702567 8 7 C7 8 7 8 3.4375 8.0625 C2.303125 8.041875 1.16875 8.02125 0 8 C0 5.36 0 2.72 0 0 Z " fill="#155C83" transform="translate(370,58)"/>
<path d="M0 0 C2.64 0 5.28 0 8 0 C8 2.64 8 5.28 8 8 C5.66705225 8.04241723 3.33297433 8.04092937 1 8 C0 7 0 7 -0.0625 3.4375 C-0.041875 2.303125 -0.02125 1.16875 0 0 Z " fill="#155C83" transform="translate(338,58)"/>
<path d="M0 0 C2.64 0 5.28 0 8 0 C8 2.31 8 4.62 8 7 C5.36 7 2.72 7 0 7 C0 4.69 0 2.38 0 0 Z " fill="#07527C" transform="translate(885,21)"/>
<path d="M0 0 C2.64 0 5.28 0 8 0 C8 2.31 8 4.62 8 7 C5.36 7 2.72 7 0 7 C0 4.69 0 2.38 0 0 Z " fill="#07527C" transform="translate(855,21)"/>
<path d="M0 0 C2.64 0 5.28 0 8 0 C8 2.31 8 4.62 8 7 C5.36 7 2.72 7 0 7 C0 4.69 0 2.38 0 0 Z " fill="#07527C" transform="translate(454,21)"/>
<path d="M0 0 C2.64 0 5.28 0 8 0 C8 2.31 8 4.62 8 7 C5.36 7 2.72 7 0 7 C0 4.69 0 2.38 0 0 Z " fill="#07527C" transform="translate(444,21)"/>
<path d="M0 0 C2.64 0 5.28 0 8 0 C8 2.31 8 4.62 8 7 C5.36 7 2.72 7 0 7 C0 4.69 0 2.38 0 0 Z " fill="#07527C" transform="translate(180,21)"/>
<path d="M0 0 C2.64 0 5.28 0 8 0 C8 2.31 8 4.62 8 7 C5.36 7 2.72 7 0 7 C0 4.69 0 2.38 0 0 Z " fill="#014F79" transform="translate(675,21)"/>
<path d="M0 0 C2.64 0 5.28 0 8 0 C8 2.31 8 4.62 8 7 C5.36 7 2.72 7 0 7 C0 4.69 0 2.38 0 0 Z " fill="#014F79" transform="translate(665,21)"/>
<path d="M0 0 C3.96 0 7.92 0 12 0 C13.46022727 7.30113636 13.46022727 7.30113636 11.3125 10.5625 C9 12 9 12 6.75 11.75 C6.1725 11.5025 5.595 11.255 5 11 C6.28965176 9.62437146 7.62689293 8.29233607 9 7 C9.66 7 10.32 7 11 7 C11 5.02 11 3.04 11 1 C7.37 1 3.74 1 0 1 C0 0.67 0 0.34 0 0 Z " fill="#D4C77D" transform="translate(14,134)"/>
</svg>
